<svg fill="none" version="1.1" viewBox="0 0 100 100" xmlns="http://www.w3.org/2000/svg"><script/><g transform="matrix(.73538 0 0 .73538 -.01176 37.962)" clip-path="url(#a)" fill="#000"><g fill="#000"><path d="m45.526 0.36963c-1.1217 0.36726-2.2594 0.71856-3.4132 1.0379-11.57 3.0818-23.268 2.491-33.828-1.0379l-2.0511 13.062 4.1504 1.1178 3.8298-6.994c1.0256 0.20758 2.0512 0.38323 3.0928 0.54291l1.1858 7.8722 4.2785 0.3673 2.5479-7.5529c1.0416 0.03194 2.0992 0.03194 3.1408 0l2.5479 7.5529 4.2786-0.3673 1.1858-7.8882c1.0255-0.15968 2.0511-0.33532 3.0927-0.54291l3.8299 7.01 4.1503-1.1018z"/><path d="m37.193 16.37-3.8298 7.01c-1.0256-0.2076-2.0512-0.3832-3.0927-0.5429l-1.1859-7.8882-4.2945-0.3673-2.5479 7.5529c-1.0576-0.0319-2.0992-0.0319-3.1408 0l-2.5479-7.5529-4.2786 0.3673-1.1858 7.8722c-1.0416 0.1597-2.0671 0.3353-3.0927 0.5429l-3.8298-6.994-4.1503 1.1178 2.0511 13.046c10.56-3.5289 22.258-4.1198 33.828-1.022 1.1537 0.3034 2.2915 0.6547 3.4132 1.038l2.0511-13.062z"/><path d="m69.354 8.5136s-1.8588-2.4271-5.8008-2.4271c-3.9581 0-9.134 2.2515-9.134 9.3733 0 7.1217 5.1759 9.4371 9.134 9.4371 3.958 0 5.2239-2.0279 5.8008-3.018 0 4.3274-3.9901 6.4352-9.0218 3.9442l-2.2594 4.8702c6.4899 3.2735 16.073 2.523 16.073-8.7824v-15.377h-4.1183zm-4.7913 11.289c-1.6024 0-4.0222-1.1018-4.0222-4.3433s2.4198-4.3433 4.0222-4.3433c1.6025 0 4.0222 1.1018 4.0222 4.3433s-2.4197 4.3433-4.0222 4.3433z"/><path d="m127.44 9.4554-0.994-2.9222h-4.118v17.916h5.721v-9.0219c0-3.1298 2.724-4.5988 5.592-3.497l2.372-5.0939c-6.041-2.6667-8.573 2.6188-8.573 2.6188z"/><path d="m118.1 6.5335h-4.119l-0.689 1.98s-1.859-2.4271-5.801-2.4271c-3.958 0-9.1336 2.6347-9.1336 9.3733 0 6.6746 5.1756 9.4371 9.1336 9.4371 4.631 0 5.801-3.018 5.801-3.018v2.5869h4.808v-2.5549zm-9.599 13.269c-1.603 0-4.022-1.1018-4.022-4.3433s2.419-4.3433 4.022-4.3433c1.602 0 4.022 1.1018 4.022 4.3433s-2.42 4.3433-4.022 4.3433z"/><path d="m87.077 5.687c-7.0347 0-10.672 4.9661-10.672 9.6128s3.269 10.172 10.16 10.172c6.8906 0 9.2302-4.487 9.5987-5.2055l-3.7818-2.4591c-0.7371 1.1816-2.5479 2.5708-4.8714 2.5708-1.8909 0-4.0222-1.2295-4.7433-3.3692h13.541c0.3846-5.0938-2.1953-11.321-9.2301-11.321zm-4.0382 7.4411c0.7051-1.4531 2.0672-2.4111 3.878-2.4111 2.644 0 3.5093 2.4111 3.5093 2.4111z"/></g></g><defs><clipPath id="a"><rect transform="translate(0 .36963)" width="136" height="32" fill="#fff"/></clipPath></defs></svg>
