<svg width="24" height="24" viewBox="0 0 24 24" fill="none" xmlns="http://www.w3.org/2000/svg">
<path d="M8.8965 21C9.52012 21 9.69637 20.7512 9.69637 20.4332C9.69637 20.1152 9.69637 19.424 9.68278 18.4424C6.44267 19.1475 5.75127 16.8663 5.75127 16.8663C5.22253 15.5253 4.4498 15.1521 4.4498 15.1521C3.39231 14.4332 4.53113 14.447 4.53113 14.447C5.69704 14.53 6.32066 15.6498 6.32066 15.6498C7.36455 17.447 9.04561 16.9217 9.70992 16.6175C9.76415 16.023 10.0217 15.4562 10.4556 15.0415C7.86616 14.7512 5.1412 13.742 5.1412 9.26266C5.12765 8.10139 5.56148 6.96775 6.34775 6.12445C6.21219 5.83411 5.81905 4.64517 6.44267 3.02765C6.44267 3.02765 7.41879 2.70968 9.65569 4.23045C11.5672 3.70508 13.5736 3.70508 15.4852 4.23045C17.695 2.72354 18.6847 3.02765 18.6847 3.02765C19.3083 4.63135 18.9151 5.8203 18.8067 6.12445C19.593 6.96775 20.0133 8.10139 19.9997 9.26266C19.9997 13.7558 17.2747 14.7373 14.6718 15.0276C15.0785 15.3733 15.4581 16.0922 15.4581 17.1843C15.4581 18.7604 15.4446 20.0046 15.4446 20.3779C15.4446 20.682 15.5801 20.9309 16.2444 20.9309L8.8965 21Z" fill="#BCBCBC"/>
</svg>
