<svg width="24" height="24" viewBox="0 0 212 180" fill="none" xmlns="http://www.w3.org/2000/svg">
<g clip-path="url(#clip0_27377_6125)">
<path d="M198.892 109.523C198.892 113.669 198.139 117.634 196.762 121.29C192.048 133.777 180.071 142.648 166.035 142.648C151.671 142.648 139.465 133.356 134.996 120.407C108.46 122.33 93.286 110.372 86.9767 87.5802C71.0391 83.2101 59.3242 68.5184 59.3242 51.0638C59.3242 39.7752 64.2273 29.6387 72.0035 22.7096C78.6203 16.8036 87.3227 13.2207 96.8561 13.2207C107.778 13.2207 117.613 17.9224 124.463 25.4378C129.071 22.4 134.577 20.6391 140.491 20.6391C144.618 20.6391 148.552 21.5002 152.117 23.0526C162.431 27.5412 169.684 37.8228 169.845 49.8324C169.851 49.9729 169.851 50.1079 169.851 50.2488L169.845 50.7495V50.755C171.345 50.423 172.901 50.2488 174.503 50.2488C181.655 50.2488 188.009 53.7026 192.013 59.0459H192.02C194.797 62.7528 196.443 67.3705 196.443 72.3767C196.453 77.5686 194.639 82.5963 191.322 86.5677C191.073 86.874 190.814 87.1723 190.546 87.4621C195.74 93.3175 198.892 101.052 198.892 109.523" fill="#BCBCBC"/>
<path d="M140.122 48.3879C134.178 54.9019 130.547 63.5969 130.547 73.1474C130.547 93.3462 146.788 109.721 166.82 109.721C169.405 109.722 171.982 109.446 174.509 108.898M95.2656 36.5821C96.1731 49.7915 107.088 60.2233 120.419 60.2233M160.518 55.3179C163.214 53.0592 166.412 51.4923 169.839 50.7512M124.458 25.4336C120.235 28.2061 116.765 32.0484 114.428 36.5821" stroke="white" stroke-width="4.48173" stroke-miterlimit="10" stroke-linecap="round" stroke-linejoin="round"/>
<path d="M198.888 109.517C198.888 127.814 184.178 142.642 166.031 142.642C151.667 142.642 139.461 133.35 134.992 120.401C108.456 122.324 93.2821 110.366 86.9728 87.5743C71.0352 83.2043 59.3203 68.5125 59.3203 51.058C59.3203 30.1568 76.1223 13.2148 96.8522 13.2148C107.774 13.2148 117.609 17.9165 124.46 25.432C129.067 22.3941 134.573 20.6333 140.487 20.6333C156.703 20.6333 169.847 33.8916 169.847 50.2429L169.841 50.7437V50.7492C171.341 50.4172 172.898 50.2429 174.499 50.2429C186.615 50.2429 196.439 60.1478 196.439 72.3709C196.439 78.2039 194.202 83.5025 190.542 87.4562C195.736 93.3117 198.888 101.046 198.888 109.517L198.888 109.517Z" stroke="white" stroke-width="3.92125" stroke-miterlimit="10" stroke-linejoin="round"/>
<path d="M190.544 87.4562C190.544 87.4562 187.997 84.7913 184.513 82.0176M92.5693 147.53C91.1312 144.501 90.2111 141.249 89.8477 137.91" stroke="white" stroke-width="4.48173" stroke-miterlimit="10" stroke-linecap="round" stroke-linejoin="round"/>
<path d="M156.992 124.493C158.153 127.742 158.746 131.17 158.743 134.623C158.743 152.387 143.28 166.78 124.201 166.78C110.054 166.78 97.898 158.866 92.5653 147.532C88.1701 150.542 82.8976 152.297 77.2355 152.297C64.5396 152.297 53.8284 143.488 50.4704 131.44C48.0729 132.042 45.6112 132.347 43.1403 132.345C26.5554 132.345 13.1055 118.789 13.1055 102.061C13.1055 89.2138 21.0435 78.2345 32.245 73.8412C31.8045 72.0023 31.5702 70.0955 31.5702 68.138C31.5702 52.9679 45.5502 40.6719 62.7986 40.6719C72.7006 40.6719 81.5361 44.7323 87.2542 51.0547C91.8402 48.5742 97.1286 47.1517 102.763 47.1517C120.24 47.1517 134.409 60.8145 134.409 77.6662C134.411 78.0636 134.402 78.4611 134.381 78.858C148.802 81.5241 159.763 94.8782 159.763 110.954C159.763 115.785 158.776 120.37 156.992 124.492" fill="#BCBCBC"/>
<path d="M145.789 109.524C150.937 113.359 154.877 118.546 156.996 124.497M50.475 131.443C49.7608 128.89 49.3813 126.195 49.3813 123.405C49.3813 112.02 55.7354 102.172 64.9625 97.4638M40.0713 71.9437C37.338 72.2251 34.716 72.8722 32.25 73.845M87.2655 51.0641L87.2592 51.0586M87.2592 51.0586C83.3381 53.1962 79.9353 56.1104 77.2744 59.5865" stroke="white" stroke-width="4.48173" stroke-miterlimit="10" stroke-linecap="round" stroke-linejoin="round"/>
<path d="M157.008 124.495C158.169 127.744 158.761 131.172 158.759 134.625C158.759 152.389 143.295 166.782 124.216 166.782C110.07 166.782 97.9137 158.868 92.5809 147.534C88.1857 150.544 82.9132 152.298 77.2512 152.298C64.5552 152.298 53.844 143.49 50.4861 131.442C48.0885 132.044 45.6268 132.349 43.1559 132.347C26.571 132.347 13.1211 118.791 13.1211 102.063C13.1211 89.2158 21.0592 78.2364 32.2607 73.8431C31.8201 72.0042 31.5858 70.0974 31.5858 68.14C31.5858 52.9698 45.5658 40.6738 62.8143 40.6738C72.7162 40.6738 81.5518 44.7342 87.2699 51.0567C91.8558 48.5761 97.1442 47.1536 102.779 47.1536C120.256 47.1536 134.425 60.8165 134.425 77.6682C134.427 78.0656 134.417 78.463 134.397 78.8599C148.818 81.5261 159.779 94.8801 159.779 110.956C159.779 115.787 158.792 120.372 157.007 124.494L157.008 124.495Z" stroke="white" stroke-width="3.92125" stroke-miterlimit="10" stroke-linejoin="round"/>
<path d="M107.386 87.9263C112.942 82.0317 120.613 78.3809 129.08 78.3809C130.888 78.3809 132.657 78.5441 134.38 78.8639M132.393 117.179C128.016 122.698 121.281 126.234 113.727 126.234C100.534 126.234 89.8399 115.45 89.8399 102.149C89.8315 96.5944 91.7349 91.2094 95.2254 86.9126" stroke="white" stroke-width="4.48173" stroke-miterlimit="10" stroke-linecap="round" stroke-linejoin="round"/>
<path d="M124.297 138.158C124.297 133.428 123.114 128.979 121.027 125.092M74.3747 122.775C78.3129 116.891 84.4444 112.633 91.5905 111.188M31.7891 102.086C34.8149 100.878 38.0402 100.257 41.2948 100.258C46.5133 100.251 51.6098 101.848 55.9045 104.838M80.8994 79.919C79.274 80.4016 77.5536 80.6602 75.7729 80.6602C71.0469 80.6665 66.5064 78.8064 63.1238 75.4785M159.296 78.7446C161.797 76.8635 164.834 75.8495 167.954 75.8544C168.821 75.8539 169.686 75.9314 170.539 76.086" stroke="white" stroke-width="4.48173" stroke-miterlimit="10" stroke-linecap="round" stroke-linejoin="round"/>
<path d="M193.124 87.4744C196.538 83.203 198.401 77.9066 198.401 72.3768C198.401 59.0898 187.682 48.2796 174.508 48.2796C173.587 48.2796 172.668 48.3336 171.757 48.4399C170.825 31.8658 157.159 18.6708 140.495 18.6708C134.939 18.6708 129.541 20.1376 124.786 22.927C117.377 15.4615 107.334 11.263 96.8599 11.252C79.304 11.252 64.3943 22.8679 59.2762 38.875C42.6356 40.4448 29.6284 52.9699 29.6284 68.1413C29.6284 69.6511 29.7593 71.1635 30.0175 72.6552C18.5093 77.8559 11.1641 89.2238 11.1641 102.064C11.1641 119.848 25.5135 134.317 43.1511 134.317C45.1652 134.317 47.175 134.128 49.1541 133.751C53.3405 145.92 64.6428 154.268 77.2468 154.268C82.3609 154.272 87.3856 152.916 91.8146 150.338C98.0503 161.593 110.524 168.752 124.212 168.752C140.877 168.752 154.959 158.248 159.31 143.952C161.498 144.386 163.749 144.616 166.039 144.616C185.233 144.616 200.849 128.872 200.849 109.523C200.849 101.462 198.118 93.6981 193.124 87.474V87.4744Z" stroke="white" stroke-width="7.84292" stroke-miterlimit="10" stroke-linejoin="round"/>
<path d="M96.853 0C86.5402 0 76.6202 3.09647 68.1658 8.95402C60.8658 14.0117 55.0791 20.8336 51.2567 28.844C32.6506 33.3904 19.3479 48.4875 18.507 66.3399C6.99084 74.4021 0 87.7139 0 102.062C0 125.798 18.9521 145.155 42.3982 145.558C49.8015 157.823 62.9992 165.516 77.2398 165.516C80.8777 165.516 84.4528 165.03 87.9204 164.066C96.8953 174.13 110.081 180 124.205 180C133.772 180 143.039 177.264 151.005 172.091C157.478 167.888 162.693 162.339 166.302 155.862C191.526 155.716 211.999 134.984 211.999 109.521C211.999 101.654 210.047 94.0199 206.319 87.1946C208.45 82.5493 209.552 77.4922 209.551 72.3742C209.551 63.1046 206.007 54.3392 199.573 47.6936C194.499 42.4524 188.076 38.9902 181.087 37.6503C178.724 29.9172 174.2 22.9497 168.017 17.6393C160.335 11.0457 150.577 7.42264 140.489 7.41802C135.786 7.41802 131.067 8.22251 126.62 9.76399C117.982 3.44028 107.572 0 96.853 0ZM96.853 7.31213C107.309 7.31213 117.564 11.2274 125.418 18.1401C130.129 15.894 135.276 14.7297 140.488 14.731C157.846 14.731 172.422 27.4594 175.222 44.3495C190.216 44.7372 202.298 57.1602 202.298 72.3746C202.293 77.7056 200.784 82.9251 197.949 87.4245C202.35 93.8913 204.746 101.628 204.746 109.521C204.746 131.043 187.379 148.552 166.032 148.552C164.651 148.552 163.265 148.476 161.886 148.326C155.928 162.826 140.915 172.688 124.204 172.688C110.423 172.688 97.794 166.171 90.3843 155.456C86.2346 157.267 81.7614 158.202 77.2398 158.204C64.0656 158.204 52.1499 150.239 46.6632 138.08C45.4942 138.195 44.3181 138.253 43.1441 138.253C23.3536 138.253 7.25233 122.018 7.25233 102.062C7.25233 88.8137 14.4436 76.6763 25.7999 70.3733C25.7448 69.6299 25.7172 68.8846 25.717 68.1391C25.717 51.7713 38.7373 38.0199 56.3957 35.266C62.8469 18.4434 78.8 7.31213 96.8538 7.31213" fill="#BCBCBC"/>
</g>
<defs>
<clipPath id="clip0_27377_6125">
<rect width="212" height="180" fill="white"/>
</clipPath>
</defs>
</svg>
