<svg width="238" height="56" viewBox="0 0 238 56" fill="none" xmlns="http://www.w3.org/2000/svg">
<g clip-path="url(#clip0_1:357)">
<path d="M79.6699 0C77.7069 0.642715 75.7158 1.25749 73.6967 1.81637C53.4498 7.20958 32.9784 6.17565 14.4982 0L10.9087 22.8583L18.1718 24.8144L24.8741 12.5749C26.6688 12.9381 28.4635 13.2455 30.2863 13.525L32.3615 27.3014L39.849 27.9441L44.3078 14.7265C46.1306 14.7824 47.9814 14.7824 49.8042 14.7265L54.263 27.9441L61.7505 27.3014L63.8256 13.497C65.6204 13.2176 67.4151 12.9102 69.2379 12.5469L75.9402 24.8144L83.2033 22.8862L79.6699 0Z" fill="#545454"/>
<path d="M65.0874 27.9999L58.3852 40.2673C56.5905 39.904 54.7957 39.5967 52.9729 39.3172L50.8977 25.5128L43.3823 24.8701L38.9234 38.0877C37.0726 38.0318 35.2498 38.0318 33.427 38.0877L28.9682 24.8701L21.4808 25.5128L19.4056 39.2893C17.5828 39.5687 15.7881 39.8761 13.9933 40.2394L7.29106 27.9999L0.0279541 29.9559L3.61744 52.7863C22.0977 46.6106 42.569 45.5767 62.816 50.9979C64.8351 51.5288 66.8261 52.1436 68.7891 52.8142L72.3786 29.9559L65.0874 27.9999Z" fill="#545454"/>
<path d="M121.37 14.2519C121.37 14.2519 118.117 10.0044 111.218 10.0044C104.291 10.0044 95.2336 13.9445 95.2336 26.4076C95.2336 38.8707 104.291 42.9226 111.218 42.9226C118.145 42.9226 120.36 39.3737 121.37 37.6411C121.37 45.214 114.387 48.9026 105.581 44.5433L101.627 53.0663C112.985 58.7948 129.754 57.4815 129.754 37.697V10.7868H122.547L121.37 14.2519ZM112.985 34.0084C110.181 34.0084 105.946 32.0802 105.946 26.4076C105.946 20.7349 110.181 18.8068 112.985 18.8068C115.789 18.8068 120.024 20.7349 120.024 26.4076C120.024 32.0802 115.789 34.0084 112.985 34.0084Z" fill="#545454"/>
<path d="M223.025 15.9002L221.286 10.7865H214.079V42.1398H224.091V26.3513C224.091 20.8743 228.858 18.3034 233.878 20.2316L238.028 11.3174C227.456 6.65073 223.025 15.9002 223.025 15.9002Z" fill="#545454"/>
<path d="M206.676 10.7868H199.469L198.263 14.2519C198.263 14.2519 195.01 10.0044 188.112 10.0044C181.185 10.0044 172.127 14.6152 172.127 26.4076C172.127 38.0882 181.185 42.9226 188.112 42.9226C196.216 42.9226 198.263 37.6411 198.263 37.6411V42.1681H206.676V37.697V10.7868ZM189.878 34.0084C187.074 34.0084 182.84 32.0802 182.84 26.4076C182.84 20.7349 187.074 18.8068 189.878 18.8068C192.683 18.8068 196.917 20.7349 196.917 26.4076C196.917 32.0802 192.683 34.0084 189.878 34.0084Z" fill="#545454"/>
<path d="M152.385 9.30542C140.074 9.30542 133.708 17.996 133.708 26.1278C133.708 34.2595 139.429 43.9282 151.488 43.9282C163.546 43.9282 167.64 36.0759 168.285 34.8184L161.667 30.515C160.377 32.5829 157.208 35.014 153.142 35.014C149.833 35.014 146.103 32.8623 144.842 29.1178H168.538C169.211 20.2036 164.696 9.30542 152.385 9.30542ZM145.318 22.3274C146.552 19.7845 148.936 18.1078 152.105 18.1078C156.732 18.1078 158.246 22.3274 158.246 22.3274H145.318Z" fill="#545454"/>
</g>
<defs>
<clipPath id="clip0_1:357">
<rect width="238" height="56" fill="white"/>
</clipPath>
</defs>
</svg>
