<svg width="24" height="24" viewBox="0 0 24 24" fill="none" xmlns="http://www.w3.org/2000/svg">
<path d="M6.40635 16.2088C10.7559 17.9407 14.4573 18.2781 18.6518 15.5823C18.6211 15.6294 17.7913 16.8836 15.6094 17.5264C16.0704 18.1691 16.7004 18.906 16.7004 18.906C18.0987 18.906 19.4662 18.4983 20.6493 17.7145C21.5712 17.0874 22.0936 16.0056 21.9861 14.8769C21.8017 12.9485 21.3561 11.0672 20.6647 9.26435C19.7888 6.91269 17.6838 5.28224 15.2407 5.04707C15.0256 5.03138 14.8719 5.03138 14.7797 5.03138L14.5339 5.28219C17.3458 6.09744 18.744 7.3673 18.7748 7.41437C14.457 5.18814 9.35573 5.15681 5.00729 7.32027C5.00729 7.32027 6.39018 5.92499 9.44787 5.18815L9.26351 5C8.9408 5 8.63351 5.03138 8.31084 5.07836C6.05213 5.47029 4.16218 7.05372 3.34782 9.23292C2.64098 11.1142 2.18004 13.0896 2.01102 15.0963C1.91884 16.1624 2.41053 17.2128 3.27098 17.8242C4.408 18.5924 5.76018 19 7.12769 19C7.12769 19 7.68084 18.2632 8.23404 17.6047C6.15969 16.9776 5.31458 15.7234 5.2992 15.6764L5.6896 15.8798C5.92298 16.0014 6.16222 16.1116 6.40635 16.2088ZM8.81791 14.8455C7.81916 14.8141 7.03551 13.9519 7.06627 12.9171C7.09702 11.9451 7.86529 11.1613 8.81791 11.1299C9.81667 11.1613 10.6003 12.0235 10.5696 13.0583C10.5235 14.0303 9.77058 14.8141 8.81791 14.8455ZM15.087 14.8455C14.0882 14.8141 13.3046 13.9519 13.3353 12.9171C13.3661 11.9451 14.1344 11.1613 15.087 11.1299C16.0858 11.1613 16.8694 12.0235 16.8387 13.0583C16.808 14.0303 16.0396 14.8141 15.087 14.8455Z" fill="#BCBCBC"/>
</svg>
