<svg width="24" height="24" viewBox="0 0 24 24" fill="none" xmlns="http://www.w3.org/2000/svg">
<path d="M21 5.77577C20.3306 6.07692 19.6174 6.27654 18.8738 6.37346C19.6388 5.905 20.2226 5.16885 20.4971 4.28154C19.7839 4.71769 18.9964 5.02577 18.1571 5.19769C17.4799 4.45808 16.5146 4 15.4616 4C13.4186 4 11.7739 5.70077 11.7739 7.78577C11.7739 8.08577 11.7986 8.37423 11.8594 8.64885C8.7915 8.49538 6.07687 6.98731 4.25325 4.69C3.93487 5.25654 3.74813 5.905 3.74813 6.60308C3.74813 7.91385 4.40625 9.07577 5.38725 9.74846C4.79438 9.73692 4.21275 9.56038 3.72 9.28231C3.72 9.29385 3.72 9.30885 3.72 9.32385C3.72 11.1631 4.99912 12.6908 6.6765 13.0427C6.37612 13.1269 6.04875 13.1673 5.709 13.1673C5.47275 13.1673 5.23425 13.1535 5.01037 13.1027C5.4885 14.6015 6.84525 15.7035 8.4585 15.7392C7.203 16.7465 5.60887 17.3535 3.88312 17.3535C3.5805 17.3535 3.29025 17.3396 3 17.3015C4.63462 18.3827 6.57188 19 8.661 19C15.4515 19 19.164 13.2308 19.164 8.23C19.164 8.06269 19.1584 7.90115 19.1505 7.74077C19.8829 7.20769 20.4982 6.54192 21 5.77577Z" fill="#BCBCBC"/>
</svg>
