<svg width="24" height="24" viewBox="0 0 24 24" fill="none" xmlns="http://www.w3.org/2000/svg">
<path d="M13.5374 12.0001C13.5374 15.8661 10.5069 19 6.76885 19C3.03072 19 0 15.8653 0 12.0001C0 8.13488 3.03051 5 6.76885 5C10.5071 5 13.5374 8.13417 13.5374 12.0001ZM20.9628 12.0001C20.9628 15.639 19.4476 18.5902 17.5784 18.5902C15.7092 18.5902 14.194 15.639 14.194 12.0001C14.194 8.36118 15.709 5.41003 17.5782 5.41003C19.4474 5.41003 20.9626 8.36024 20.9626 12.0001H20.9628ZM24 12.0001C24 15.2598 23.4671 17.9038 22.8097 17.9038C22.1522 17.9038 21.6196 15.2604 21.6196 12.0001C21.6196 8.73981 22.1524 6.09647 22.8097 6.09647C23.4669 6.09647 24 8.73959 24 12.0001Z" fill="#BCBCBC"/>
</svg>
